<?xml version="1.0" standalone="no"?>
<!DOCTYPE svg PUBLIC "-//W3C//DTD SVG 20010904//EN"
 "http://www.w3.org/TR/2001/REC-SVG-20010904/DTD/svg10.dtd">
<svg version="1.0" xmlns="http://www.w3.org/2000/svg"
 width="512.000000pt" height="512.000000pt" viewBox="0 0 512.000000 512.000000"
 preserveAspectRatio="xMidYMid meet">
<metadata>
Created by potrace 1.11, written by Peter Selinger 2001-2013
</metadata>
<g transform="translate(0.000000,512.000000) scale(0.100000,-0.100000)"
fill="#000000" stroke="none">
<path d="M1410 4800 l0 -70 -70 0 -70 0 0 -70 0 -70 -70 0 -70 0 0 -2155 0
-2155 1345 0 1345 0 0 70 0 70 70 0 c78 0 72 -7 72 88 l0 52 69 0 69 0 0 540
0 540 -805 0 -805 0 0 125 0 125 455 0 455 0 0 70 0 70 70 0 70 0 0 70 0 70
70 0 70 0 0 540 0 540 -595 0 -595 0 0 125 0 125 665 0 665 0 0 70 0 69 72 3
72 3 -1 68 -2 67 70 0 69 0 0 545 0 545 -1345 0 -1345 0 0 -70z"/>
</g>
</svg>
